<?xml version="1.0" encoding="UTF-8" standalone="no"?>
<!-- Created with Inkscape (http://www.inkscape.org/) -->

<svg
   xmlns:dc="http://purl.org/dc/elements/1.1/"
   xmlns:cc="http://creativecommons.org/ns#"
   xmlns:rdf="http://www.w3.org/1999/02/22-rdf-syntax-ns#"
   xmlns:svg="http://www.w3.org/2000/svg"
   xmlns="http://www.w3.org/2000/svg"
   xmlns:sodipodi="http://sodipodi.sourceforge.net/DTD/sodipodi-0.dtd"
   xmlns:inkscape="http://www.inkscape.org/namespaces/inkscape"
   width="1295.7188"
   height="732.84375"
   id="svg2"
   version="1.1"
   inkscape:version="0.48+devel r10754"
   sodipodi:docname="Cloud_svg.svg">
  <defs
     id="defs4" />
  <sodipodi:namedview
     id="base"
     pagecolor="#ffffff"
     bordercolor="#666666"
     borderopacity="1.0"
     inkscape:pageopacity="0.0"
     inkscape:pageshadow="2"
     inkscape:zoom="0.35"
     inkscape:cx="657.58544"
     inkscape:cy="366.41519"
     inkscape:document-units="px"
     inkscape:current-layer="layer1"
     showgrid="false"
     width="0px"
     height="0px"
     fit-margin-top="0"
     fit-margin-left="0"
     fit-margin-right="0"
     fit-margin-bottom="0"
     inkscape:window-width="1280"
     inkscape:window-height="744"
     inkscape:window-x="-4"
     inkscape:window-y="-4"
     inkscape:window-maximized="1" />
  <metadata
     id="metadata7">
    <rdf:RDF>
      <cc:Work
         rdf:about="">
        <dc:format>image/svg+xml</dc:format>
        <dc:type
           rdf:resource="http://purl.org/dc/dcmitype/StillImage" />
        <dc:title></dc:title>
      </cc:Work>
    </rdf:RDF>
  </metadata>
  <g
     inkscape:label="Layer 1"
     inkscape:groupmode="layer"
     id="layer1"
     transform="translate(290.72768,-165.93362)">
    <rect
       style="fill:#aaeeff;fill-opacity:1;fill-rule:nonzero;stroke:#000000;stroke-width:10;stroke-miterlimit:4;stroke-dasharray:none"
       id="rect68"
       width="1285.7142"
       height="722.85712"
       x="-157.14285"
       y="-150"
       transform="translate(-128.57143,320.93362)"
       ry="132.25806" />
    <g
       id="g54"
       transform="translate(22.27455,16.421871)">
      <g
         transform="translate(4,10)"
         id="g42"
         style="fill:#000000">
        <path
           d="m 522.85715,510.93362 c 0,104.93411 -85.0659,190 -190,190 -104.93411,0 -190,-85.06589 -190,-190 0,-104.9341 85.06589,-190 190,-190 104.9341,0 190,85.0659 190,190 z"
           sodipodi:ry="190"
           sodipodi:rx="190"
           sodipodi:cy="510.93362"
           sodipodi:cx="332.85715"
           id="path44"
           style="fill:#000000;fill-opacity:1;fill-rule:nonzero;stroke:none"
           sodipodi:type="arc" />
        <path
           transform="matrix(0.73684211,0,0,0.73684211,-105.26316,134.45621)"
           sodipodi:type="arc"
           style="fill:#000000;fill-opacity:1;fill-rule:nonzero;stroke:none"
           id="path46"
           sodipodi:cx="332.85715"
           sodipodi:cy="510.93362"
           sodipodi:rx="190"
           sodipodi:ry="190"
           d="m 522.85715,510.93362 c 0,104.93411 -85.0659,190 -190,190 -104.93411,0 -190,-85.06589 -190,-190 0,-104.9341 85.06589,-190 190,-190 104.9341,0 190,85.0659 190,190 z" />
        <path
           d="m 522.85715,510.93362 c 0,104.93411 -85.0659,190 -190,190 -104.93411,0 -190,-85.06589 -190,-190 0,-104.9341 85.06589,-190 190,-190 104.9341,0 190,85.0659 190,190 z"
           sodipodi:ry="190"
           sodipodi:rx="190"
           sodipodi:cy="510.93362"
           sodipodi:cx="332.85715"
           id="path48"
           style="fill:#000000;fill-opacity:1;fill-rule:nonzero;stroke:none"
           sodipodi:type="arc"
           transform="matrix(0.58646617,0,0,0.58646617,-212.35231,211.28834)" />
        <path
           d="m 522.85715,510.93362 c 0,104.93411 -85.0659,190 -190,190 -104.93411,0 -190,-85.06589 -190,-190 0,-104.9341 85.06589,-190 190,-190 104.9341,0 190,85.0659 190,190 z"
           sodipodi:ry="190"
           sodipodi:rx="190"
           sodipodi:cy="510.93362"
           sodipodi:cx="332.85715"
           id="path50"
           style="fill:#000000;fill-opacity:1;fill-rule:nonzero;stroke:none"
           sodipodi:type="arc"
           transform="matrix(-0.73684211,0,0,0.73684211,770.97745,134.45621)" />
        <path
           transform="matrix(-0.58646617,0,0,0.58646617,878.0666,211.28834)"
           sodipodi:type="arc"
           style="fill:#000000;fill-opacity:1;fill-rule:nonzero;stroke:none"
           id="path52"
           sodipodi:cx="332.85715"
           sodipodi:cy="510.93362"
           sodipodi:rx="190"
           sodipodi:ry="190"
           d="m 522.85715,510.93362 c 0,104.93411 -85.0659,190 -190,190 -104.93411,0 -190,-85.06589 -190,-190 0,-104.9341 85.06589,-190 190,-190 104.9341,0 190,85.0659 190,190 z" />
      </g>
      <g
         style="fill:#f9f9f9"
         id="g35">
        <path
           sodipodi:type="arc"
           style="fill:#f9f9f9;fill-opacity:1;fill-rule:nonzero;stroke:none"
           id="path10"
           sodipodi:cx="332.85715"
           sodipodi:cy="510.93362"
           sodipodi:rx="190"
           sodipodi:ry="190"
           d="m 522.85715,510.93362 c 0,104.93411 -85.0659,190 -190,190 -104.93411,0 -190,-85.06589 -190,-190 0,-104.9341 85.06589,-190 190,-190 104.9341,0 190,85.0659 190,190 z" />
        <path
           d="m 522.85715,510.93362 c 0,104.93411 -85.0659,190 -190,190 -104.93411,0 -190,-85.06589 -190,-190 0,-104.9341 85.06589,-190 190,-190 104.9341,0 190,85.0659 190,190 z"
           sodipodi:ry="190"
           sodipodi:rx="190"
           sodipodi:cy="510.93362"
           sodipodi:cx="332.85715"
           id="path12"
           style="fill:#f9f9f9;fill-opacity:1;fill-rule:nonzero;stroke:none"
           sodipodi:type="arc"
           transform="matrix(0.73684211,0,0,0.73684211,-105.26316,134.45621)" />
        <path
           transform="matrix(0.58646617,0,0,0.58646617,-212.35231,211.28834)"
           sodipodi:type="arc"
           style="fill:#f9f9f9;fill-opacity:1;fill-rule:nonzero;stroke:none"
           id="path14"
           sodipodi:cx="332.85715"
           sodipodi:cy="510.93362"
           sodipodi:rx="190"
           sodipodi:ry="190"
           d="m 522.85715,510.93362 c 0,104.93411 -85.0659,190 -190,190 -104.93411,0 -190,-85.06589 -190,-190 0,-104.9341 85.06589,-190 190,-190 104.9341,0 190,85.0659 190,190 z" />
        <path
           transform="matrix(-0.73684211,0,0,0.73684211,770.97745,134.45621)"
           sodipodi:type="arc"
           style="fill:#f9f9f9;fill-opacity:1;fill-rule:nonzero;stroke:none"
           id="path25"
           sodipodi:cx="332.85715"
           sodipodi:cy="510.93362"
           sodipodi:rx="190"
           sodipodi:ry="190"
           d="m 522.85715,510.93362 c 0,104.93411 -85.0659,190 -190,190 -104.93411,0 -190,-85.06589 -190,-190 0,-104.9341 85.06589,-190 190,-190 104.9341,0 190,85.0659 190,190 z" />
        <path
           d="m 522.85715,510.93362 c 0,104.93411 -85.0659,190 -190,190 -104.93411,0 -190,-85.06589 -190,-190 0,-104.9341 85.06589,-190 190,-190 104.9341,0 190,85.0659 190,190 z"
           sodipodi:ry="190"
           sodipodi:rx="190"
           sodipodi:cy="510.93362"
           sodipodi:cx="332.85715"
           id="path27"
           style="fill:#f9f9f9;fill-opacity:1;fill-rule:nonzero;stroke:none"
           sodipodi:type="arc"
           transform="matrix(-0.58646617,0,0,0.58646617,878.0666,211.28834)" />
      </g>
    </g>
  </g>
</svg>
